<mxfile host="Electron" modified="2024-05-18T21:07:22.390Z" agent="Mozilla/5.0 (Windows NT 10.0; Win64; x64) AppleWebKit/537.36 (KHTML, like Gecko) draw.io/24.2.5 Chrome/120.0.6099.109 Electron/28.1.0 Safari/537.36" etag="p7wcCZsm9uMAzeHM0dIO" version="24.2.5" type="device">
  <diagram name="ページ1" id="LE8fIzdrHe0wcv1LTvfw">
    <mxGraphModel dx="1732" dy="1036" grid="1" gridSize="10" guides="1" tooltips="1" connect="1" arrows="1" fold="1" page="1" pageScale="1" pageWidth="1600" pageHeight="1200" math="0" shadow="0">
      <root>
        <mxCell id="0" />
        <mxCell id="cFaB45KztUIKXS-_cTrr-4" value="背景" style="locked=1;" parent="0" visible="0" />
        <mxCell id="cFaB45KztUIKXS-_cTrr-5" value="" style="rounded=0;whiteSpace=wrap;html=1;strokeWidth=3;" parent="cFaB45KztUIKXS-_cTrr-4" vertex="1">
          <mxGeometry x="1" y="1" width="1595" height="1180" as="geometry" />
        </mxCell>
        <mxCell id="cFaB45KztUIKXS-_cTrr-6" value="" style="rounded=0;whiteSpace=wrap;html=1;fillColor=#B3B3B3;fontColor=#333333;strokeColor=#666666;" parent="cFaB45KztUIKXS-_cTrr-4" vertex="1">
          <mxGeometry width="1595" height="60" as="geometry" />
        </mxCell>
        <mxCell id="cFaB45KztUIKXS-_cTrr-7" value="&lt;font style=&quot;font-size: 48px;&quot;&gt;×&lt;/font&gt;" style="rounded=0;whiteSpace=wrap;html=1;" parent="cFaB45KztUIKXS-_cTrr-4" vertex="1">
          <mxGeometry x="1550" y="10" width="40" height="40" as="geometry" />
        </mxCell>
        <mxCell id="cFaB45KztUIKXS-_cTrr-8" value="" style="rounded=0;whiteSpace=wrap;html=1;" parent="cFaB45KztUIKXS-_cTrr-4" vertex="1">
          <mxGeometry x="830" y="670" width="120" height="60" as="geometry" />
        </mxCell>
        <mxCell id="cFaB45KztUIKXS-_cTrr-9" value="ウインドウ" style="locked=1;" parent="0" />
        <mxCell id="cFaB45KztUIKXS-_cTrr-10" value="" style="rounded=0;whiteSpace=wrap;html=1;strokeWidth=3;" parent="cFaB45KztUIKXS-_cTrr-9" vertex="1">
          <mxGeometry x="1" y="1" width="1589" height="3549" as="geometry" />
        </mxCell>
        <mxCell id="cFaB45KztUIKXS-_cTrr-11" value="" style="rounded=0;whiteSpace=wrap;html=1;fillColor=#B3B3B3;fontColor=#333333;strokeColor=#666666;" parent="cFaB45KztUIKXS-_cTrr-9" vertex="1">
          <mxGeometry width="1595" height="60" as="geometry" />
        </mxCell>
        <mxCell id="cFaB45KztUIKXS-_cTrr-12" value="&lt;font style=&quot;font-size: 48px;&quot;&gt;×&lt;/font&gt;" style="rounded=0;whiteSpace=wrap;html=1;" parent="cFaB45KztUIKXS-_cTrr-9" vertex="1">
          <mxGeometry x="1550" y="10" width="40" height="40" as="geometry" />
        </mxCell>
        <mxCell id="cFaB45KztUIKXS-_cTrr-14" value="名称未設定レイヤ" style="" parent="0" />
        <mxCell id="5l2hKBXCzOEWmYN1dR5e-1" value="&lt;span style=&quot;font-size: 30px;&quot;&gt;保存&lt;/span&gt;" style="rounded=1;whiteSpace=wrap;html=1;" parent="cFaB45KztUIKXS-_cTrr-14" vertex="1">
          <mxGeometry x="1343" y="3449" width="210" height="60" as="geometry" />
        </mxCell>
        <mxCell id="5l2hKBXCzOEWmYN1dR5e-2" value="&lt;span style=&quot;font-size: 30px;&quot;&gt;閉じる&lt;/span&gt;" style="rounded=1;whiteSpace=wrap;html=1;" parent="cFaB45KztUIKXS-_cTrr-14" vertex="1">
          <mxGeometry x="1093" y="3449" width="210" height="60" as="geometry" />
        </mxCell>
        <mxCell id="MmM4sdzbBg2WOu6LbQjL-0" value="&lt;div&gt;&lt;span style=&quot;font-size: 30px;&quot;&gt;&lt;br&gt;&lt;/span&gt;&lt;/div&gt;&lt;span style=&quot;font-size: 30px;&quot;&gt;意見付記集約&lt;/span&gt;" style="rounded=0;whiteSpace=wrap;html=1;align=left;dashed=1;dashPattern=8 8;verticalAlign=bottom;" parent="cFaB45KztUIKXS-_cTrr-14" vertex="1">
          <mxGeometry x="27" y="221" width="310" height="46" as="geometry" />
        </mxCell>
        <mxCell id="NQJxZghHYys1g4WI1TBl-5" value="" style="rounded=1;whiteSpace=wrap;html=1;" parent="cFaB45KztUIKXS-_cTrr-14" vertex="1">
          <mxGeometry x="47" y="330" width="1043" height="370" as="geometry" />
        </mxCell>
        <mxCell id="NQJxZghHYys1g4WI1TBl-1" value="&lt;font style=&quot;font-size: 30px;&quot;&gt;意見付記&lt;/font&gt;&lt;span style=&quot;font-size: 30px;&quot;&gt;&lt;br&gt;&lt;/span&gt;" style="rounded=0;whiteSpace=wrap;html=1;align=left;verticalAlign=top;" parent="cFaB45KztUIKXS-_cTrr-14" vertex="1">
          <mxGeometry x="110" y="498" width="920" height="175" as="geometry" />
        </mxCell>
        <mxCell id="NQJxZghHYys1g4WI1TBl-2" value="&lt;span style=&quot;font-size: 30px;&quot;&gt;政治家　太郎&lt;/span&gt;" style="rounded=0;whiteSpace=wrap;html=1;align=right;dashed=1;dashPattern=8 8;verticalAlign=bottom;" parent="cFaB45KztUIKXS-_cTrr-14" vertex="1">
          <mxGeometry x="57" y="366" width="310" height="46" as="geometry" />
        </mxCell>
        <mxCell id="NQJxZghHYys1g4WI1TBl-3" value="&lt;span style=&quot;font-size: 30px;&quot;&gt;さん&lt;/span&gt;" style="rounded=0;whiteSpace=wrap;html=1;align=left;dashed=1;dashPattern=8 8;verticalAlign=bottom;" parent="cFaB45KztUIKXS-_cTrr-14" vertex="1">
          <mxGeometry x="377" y="366" width="133" height="46" as="geometry" />
        </mxCell>
        <mxCell id="NQJxZghHYys1g4WI1TBl-4" value="&lt;span style=&quot;font-size: 30px;&quot;&gt;代表者&lt;/span&gt;" style="rounded=0;whiteSpace=wrap;html=1;align=right;dashed=1;dashPattern=8 8;verticalAlign=bottom;" parent="cFaB45KztUIKXS-_cTrr-14" vertex="1">
          <mxGeometry x="57" y="426" width="310" height="46" as="geometry" />
        </mxCell>
        <mxCell id="NQJxZghHYys1g4WI1TBl-13" value="" style="rounded=1;whiteSpace=wrap;html=1;" parent="cFaB45KztUIKXS-_cTrr-14" vertex="1">
          <mxGeometry x="507" y="1270" width="1043" height="470" as="geometry" />
        </mxCell>
        <mxCell id="NQJxZghHYys1g4WI1TBl-15" value="&lt;font style=&quot;font-size: 30px;&quot;&gt;意見付記&lt;/font&gt;&lt;span style=&quot;font-size: 30px;&quot;&gt;&lt;br&gt;&lt;/span&gt;" style="rounded=0;whiteSpace=wrap;html=1;align=left;verticalAlign=top;" parent="cFaB45KztUIKXS-_cTrr-14" vertex="1">
          <mxGeometry x="570" y="1508" width="920" height="175" as="geometry" />
        </mxCell>
        <mxCell id="NQJxZghHYys1g4WI1TBl-16" value="&lt;span style=&quot;font-size: 30px;&quot;&gt;監査人　次郎&lt;/span&gt;" style="rounded=0;whiteSpace=wrap;html=1;align=right;dashed=1;dashPattern=8 8;verticalAlign=bottom;" parent="cFaB45KztUIKXS-_cTrr-14" vertex="1">
          <mxGeometry x="517" y="1306" width="310" height="46" as="geometry" />
        </mxCell>
        <mxCell id="NQJxZghHYys1g4WI1TBl-17" value="&lt;span style=&quot;font-size: 30px;&quot;&gt;さん&lt;/span&gt;" style="rounded=0;whiteSpace=wrap;html=1;align=left;dashed=1;dashPattern=8 8;verticalAlign=bottom;" parent="cFaB45KztUIKXS-_cTrr-14" vertex="1">
          <mxGeometry x="853.5" y="1310" width="133" height="46" as="geometry" />
        </mxCell>
        <mxCell id="NQJxZghHYys1g4WI1TBl-18" value="&lt;span style=&quot;font-size: 30px;&quot;&gt;監査意見2&lt;/span&gt;" style="rounded=0;whiteSpace=wrap;html=1;align=right;dashed=1;dashPattern=8 8;verticalAlign=bottom;" parent="cFaB45KztUIKXS-_cTrr-14" vertex="1">
          <mxGeometry x="517" y="1366" width="310" height="46" as="geometry" />
        </mxCell>
        <mxCell id="NQJxZghHYys1g4WI1TBl-19" value="&lt;span style=&quot;font-size: 30px;&quot;&gt;会計責任者　正夫さんの意見を支持します&lt;/span&gt;" style="rounded=0;whiteSpace=wrap;html=1;align=left;dashed=1;dashPattern=8 8;verticalAlign=bottom;" parent="cFaB45KztUIKXS-_cTrr-14" vertex="1">
          <mxGeometry x="573.5" y="1430" width="916.5" height="46" as="geometry" />
        </mxCell>
        <mxCell id="NQJxZghHYys1g4WI1TBl-20" value="" style="rounded=1;whiteSpace=wrap;html=1;" parent="cFaB45KztUIKXS-_cTrr-14" vertex="1">
          <mxGeometry x="47" y="1790" width="1043" height="370" as="geometry" />
        </mxCell>
        <mxCell id="NQJxZghHYys1g4WI1TBl-22" value="&lt;font style=&quot;font-size: 30px;&quot;&gt;意見付記&lt;/font&gt;&lt;span style=&quot;font-size: 30px;&quot;&gt;&lt;br&gt;&lt;/span&gt;" style="rounded=0;whiteSpace=wrap;html=1;align=left;verticalAlign=top;" parent="cFaB45KztUIKXS-_cTrr-14" vertex="1">
          <mxGeometry x="110" y="1958" width="920" height="175" as="geometry" />
        </mxCell>
        <mxCell id="NQJxZghHYys1g4WI1TBl-23" value="&lt;span style=&quot;font-size: 30px;&quot;&gt;会計責任者　正夫&lt;/span&gt;" style="rounded=0;whiteSpace=wrap;html=1;align=right;dashed=1;dashPattern=8 8;verticalAlign=bottom;" parent="cFaB45KztUIKXS-_cTrr-14" vertex="1">
          <mxGeometry x="57" y="1826" width="310" height="46" as="geometry" />
        </mxCell>
        <mxCell id="NQJxZghHYys1g4WI1TBl-24" value="&lt;span style=&quot;font-size: 30px;&quot;&gt;さん&lt;/span&gt;" style="rounded=0;whiteSpace=wrap;html=1;align=left;dashed=1;dashPattern=8 8;verticalAlign=bottom;" parent="cFaB45KztUIKXS-_cTrr-14" vertex="1">
          <mxGeometry x="377" y="1826" width="133" height="46" as="geometry" />
        </mxCell>
        <mxCell id="NQJxZghHYys1g4WI1TBl-25" value="&lt;span style=&quot;font-size: 30px;&quot;&gt;会計責任者&lt;/span&gt;" style="rounded=0;whiteSpace=wrap;html=1;align=right;dashed=1;dashPattern=8 8;verticalAlign=bottom;" parent="cFaB45KztUIKXS-_cTrr-14" vertex="1">
          <mxGeometry x="57" y="1886" width="310" height="46" as="geometry" />
        </mxCell>
        <mxCell id="NQJxZghHYys1g4WI1TBl-26" value="" style="rounded=1;whiteSpace=wrap;html=1;" parent="cFaB45KztUIKXS-_cTrr-14" vertex="1">
          <mxGeometry x="517" y="760" width="1043" height="470" as="geometry" />
        </mxCell>
        <mxCell id="NQJxZghHYys1g4WI1TBl-28" value="&lt;font style=&quot;font-size: 30px;&quot;&gt;意見付記&lt;/font&gt;&lt;span style=&quot;font-size: 30px;&quot;&gt;&lt;br&gt;&lt;/span&gt;" style="rounded=0;whiteSpace=wrap;html=1;align=left;verticalAlign=top;" parent="cFaB45KztUIKXS-_cTrr-14" vertex="1">
          <mxGeometry x="580" y="998" width="920" height="175" as="geometry" />
        </mxCell>
        <mxCell id="NQJxZghHYys1g4WI1TBl-29" value="&lt;span style=&quot;font-size: 30px;&quot;&gt;監査人　一郎&lt;/span&gt;" style="rounded=0;whiteSpace=wrap;html=1;align=right;dashed=1;dashPattern=8 8;verticalAlign=bottom;" parent="cFaB45KztUIKXS-_cTrr-14" vertex="1">
          <mxGeometry x="527" y="796" width="310" height="46" as="geometry" />
        </mxCell>
        <mxCell id="NQJxZghHYys1g4WI1TBl-30" value="&lt;span style=&quot;font-size: 30px;&quot;&gt;さん&lt;/span&gt;" style="rounded=0;whiteSpace=wrap;html=1;align=left;dashed=1;dashPattern=8 8;verticalAlign=bottom;" parent="cFaB45KztUIKXS-_cTrr-14" vertex="1">
          <mxGeometry x="863.5" y="800" width="133" height="46" as="geometry" />
        </mxCell>
        <mxCell id="NQJxZghHYys1g4WI1TBl-31" value="&lt;span style=&quot;font-size: 30px;&quot;&gt;監査意見1&lt;/span&gt;" style="rounded=0;whiteSpace=wrap;html=1;align=right;dashed=1;dashPattern=8 8;verticalAlign=bottom;" parent="cFaB45KztUIKXS-_cTrr-14" vertex="1">
          <mxGeometry x="527" y="856" width="310" height="46" as="geometry" />
        </mxCell>
        <mxCell id="NQJxZghHYys1g4WI1TBl-32" value="&lt;span style=&quot;font-size: 30px;&quot;&gt;独自の仕分けを提示します&lt;/span&gt;" style="rounded=0;whiteSpace=wrap;html=1;align=left;dashed=1;dashPattern=8 8;verticalAlign=bottom;" parent="cFaB45KztUIKXS-_cTrr-14" vertex="1">
          <mxGeometry x="583.5" y="920" width="916.5" height="46" as="geometry" />
        </mxCell>
        <mxCell id="DXEXjRhc03ldfBuddgmn-0" value="&lt;div style=&quot;&quot;&gt;&lt;span style=&quot;background-color: initial;&quot;&gt;&lt;font style=&quot;font-size: 30px;&quot;&gt;123,456&lt;/font&gt;&lt;/span&gt;&lt;/div&gt;" style="rounded=0;whiteSpace=wrap;html=1;align=right;fillColor=#CCCCCC;" parent="cFaB45KztUIKXS-_cTrr-14" vertex="1">
          <mxGeometry x="371" y="2447" width="220" height="48" as="geometry" />
        </mxCell>
        <mxCell id="DXEXjRhc03ldfBuddgmn-1" value="&lt;div style=&quot;&quot;&gt;&lt;span style=&quot;background-color: initial;&quot;&gt;&lt;font style=&quot;font-size: 30px;&quot;&gt;*金額&lt;/font&gt;&lt;/span&gt;&lt;/div&gt;" style="rounded=0;whiteSpace=wrap;html=1;align=right;dashed=1;dashPattern=8 8;verticalAlign=bottom;" parent="cFaB45KztUIKXS-_cTrr-14" vertex="1">
          <mxGeometry x="70" y="2444" width="230" height="48" as="geometry" />
        </mxCell>
        <mxCell id="DXEXjRhc03ldfBuddgmn-2" value="&lt;div style=&quot;&quot;&gt;&lt;font style=&quot;font-size: 30px;&quot;&gt;*収支報告&lt;/font&gt;&lt;/div&gt;" style="rounded=0;whiteSpace=wrap;html=1;align=right;dashed=1;dashPattern=8 8;verticalAlign=bottom;" parent="cFaB45KztUIKXS-_cTrr-14" vertex="1">
          <mxGeometry x="73" y="2308" width="230" height="46" as="geometry" />
        </mxCell>
        <mxCell id="DXEXjRhc03ldfBuddgmn-3" value="&lt;div style=&quot;&quot;&gt;&lt;span style=&quot;background-color: initial;&quot;&gt;&lt;font style=&quot;font-size: 30px;&quot;&gt;思想団体A&lt;/font&gt;&lt;/span&gt;&lt;/div&gt;" style="rounded=0;whiteSpace=wrap;html=1;align=left;fillColor=#CCCCCC;" parent="cFaB45KztUIKXS-_cTrr-14" vertex="1">
          <mxGeometry x="371" y="2657" width="220" height="48" as="geometry" />
        </mxCell>
        <mxCell id="DXEXjRhc03ldfBuddgmn-4" value="&lt;div style=&quot;font-size: 30px;&quot;&gt;&lt;span style=&quot;background-color: initial;&quot;&gt;*氏名・&lt;/span&gt;&lt;span style=&quot;background-color: initial;&quot;&gt;団体名&lt;/span&gt;&lt;/div&gt;" style="rounded=0;whiteSpace=wrap;html=1;align=right;dashed=1;dashPattern=8 8;verticalAlign=bottom;" parent="cFaB45KztUIKXS-_cTrr-14" vertex="1">
          <mxGeometry x="70" y="2657" width="230" height="48" as="geometry" />
        </mxCell>
        <mxCell id="DXEXjRhc03ldfBuddgmn-5" value="&lt;div style=&quot;&quot;&gt;&lt;span style=&quot;background-color: initial;&quot;&gt;&lt;font style=&quot;font-size: 30px;&quot;&gt;収支 花子&lt;/font&gt;&lt;/span&gt;&lt;/div&gt;" style="rounded=0;whiteSpace=wrap;html=1;align=left;fillColor=#CCCCCC;" parent="cFaB45KztUIKXS-_cTrr-14" vertex="1">
          <mxGeometry x="369" y="2732" width="220" height="48" as="geometry" />
        </mxCell>
        <mxCell id="DXEXjRhc03ldfBuddgmn-6" value="&lt;div style=&quot;&quot;&gt;&lt;span style=&quot;background-color: initial;&quot;&gt;&lt;font style=&quot;font-size: 30px;&quot;&gt;*代表者氏名&lt;/font&gt;&lt;/span&gt;&lt;/div&gt;" style="rounded=0;whiteSpace=wrap;html=1;align=right;dashed=1;dashPattern=8 8;verticalAlign=bottom;" parent="cFaB45KztUIKXS-_cTrr-14" vertex="1">
          <mxGeometry x="70" y="2733" width="230" height="48" as="geometry" />
        </mxCell>
        <mxCell id="DXEXjRhc03ldfBuddgmn-7" value="&lt;div style=&quot;&quot;&gt;&lt;span style=&quot;background-color: initial;&quot;&gt;&lt;font style=&quot;font-size: 30px;&quot;&gt;東京都千代田区霞が関&lt;/font&gt;&lt;/span&gt;&lt;/div&gt;" style="rounded=0;whiteSpace=wrap;html=1;align=left;verticalAlign=top;fillColor=#CCCCCC;" parent="cFaB45KztUIKXS-_cTrr-14" vertex="1">
          <mxGeometry x="367" y="2807" width="343" height="144" as="geometry" />
        </mxCell>
        <mxCell id="DXEXjRhc03ldfBuddgmn-8" value="&lt;div style=&quot;&quot;&gt;&lt;font style=&quot;font-size: 30px;&quot;&gt;*代表者住所&lt;/font&gt;&lt;/div&gt;" style="rounded=0;whiteSpace=wrap;html=1;align=right;dashed=1;dashPattern=8 8;verticalAlign=bottom;" parent="cFaB45KztUIKXS-_cTrr-14" vertex="1">
          <mxGeometry x="70" y="2804" width="230" height="48" as="geometry" />
        </mxCell>
        <mxCell id="DXEXjRhc03ldfBuddgmn-9" value="&lt;font style=&quot;font-size: 84px;&quot;&gt;○&lt;/font&gt;" style="text;html=1;strokeColor=none;fillColor=none;align=center;verticalAlign=middle;whiteSpace=wrap;rounded=0;fontSize=60;" parent="cFaB45KztUIKXS-_cTrr-14" vertex="1">
          <mxGeometry x="370" y="2317" width="60" height="30" as="geometry" />
        </mxCell>
        <mxCell id="DXEXjRhc03ldfBuddgmn-10" value="&lt;font style=&quot;font-size: 48px;&quot;&gt;●&lt;/font&gt;" style="text;html=1;strokeColor=none;fillColor=none;align=center;verticalAlign=middle;whiteSpace=wrap;rounded=0;fontSize=48;" parent="cFaB45KztUIKXS-_cTrr-14" vertex="1">
          <mxGeometry x="370" y="2319" width="60" height="30" as="geometry" />
        </mxCell>
        <mxCell id="DXEXjRhc03ldfBuddgmn-11" value="&lt;font style=&quot;font-size: 30px;&quot;&gt;報告対象&lt;/font&gt;" style="text;html=1;strokeColor=none;fillColor=none;align=left;verticalAlign=middle;whiteSpace=wrap;rounded=0;" parent="cFaB45KztUIKXS-_cTrr-14" vertex="1">
          <mxGeometry x="425" y="2306" width="275" height="60" as="geometry" />
        </mxCell>
        <mxCell id="DXEXjRhc03ldfBuddgmn-12" value="&lt;font style=&quot;font-size: 84px;&quot;&gt;○&lt;/font&gt;" style="text;html=1;strokeColor=none;fillColor=none;align=center;verticalAlign=middle;whiteSpace=wrap;rounded=0;fontSize=60;" parent="cFaB45KztUIKXS-_cTrr-14" vertex="1">
          <mxGeometry x="560" y="2317" width="60" height="30" as="geometry" />
        </mxCell>
        <mxCell id="DXEXjRhc03ldfBuddgmn-13" value="&lt;font style=&quot;font-size: 30px;&quot;&gt;生活費(報告対象外)&lt;/font&gt;" style="text;html=1;strokeColor=none;fillColor=none;align=left;verticalAlign=middle;whiteSpace=wrap;rounded=0;" parent="cFaB45KztUIKXS-_cTrr-14" vertex="1">
          <mxGeometry x="612" y="2307" width="275" height="60" as="geometry" />
        </mxCell>
        <mxCell id="DXEXjRhc03ldfBuddgmn-14" value="&lt;font style=&quot;font-size: 30px;&quot;&gt;*仕訳項目&lt;/font&gt;" style="rounded=0;whiteSpace=wrap;html=1;align=right;dashed=1;dashPattern=8 8;verticalAlign=bottom;" parent="cFaB45KztUIKXS-_cTrr-14" vertex="1">
          <mxGeometry x="71" y="2372" width="230" height="46" as="geometry" />
        </mxCell>
        <mxCell id="DXEXjRhc03ldfBuddgmn-15" value="&lt;div style=&quot;&quot;&gt;&lt;font style=&quot;font-size: 30px;&quot;&gt;▼ (8)寄付(あっせん)&lt;/font&gt;&lt;/div&gt;" style="rounded=0;whiteSpace=wrap;html=1;align=left;fillColor=#CCCCCC;" parent="cFaB45KztUIKXS-_cTrr-14" vertex="1">
          <mxGeometry x="373" y="2378" width="347" height="48" as="geometry" />
        </mxCell>
        <mxCell id="DXEXjRhc03ldfBuddgmn-16" value="&lt;div style=&quot;&quot;&gt;&lt;font style=&quot;font-size: 30px;&quot;&gt;▼ 3.政治団体&lt;/font&gt;&lt;/div&gt;" style="rounded=0;whiteSpace=wrap;html=1;align=left;fillColor=#CCCCCC;" parent="cFaB45KztUIKXS-_cTrr-14" vertex="1">
          <mxGeometry x="768" y="2378" width="346" height="48" as="geometry" />
        </mxCell>
        <mxCell id="DXEXjRhc03ldfBuddgmn-17" value="&lt;div style=&quot;&quot;&gt;&lt;span style=&quot;background-color: initial;&quot;&gt;&lt;font style=&quot;font-size: 30px;&quot;&gt;2022-12-01&lt;/font&gt;&lt;/span&gt;&lt;/div&gt;" style="rounded=0;whiteSpace=wrap;html=1;align=left;fillColor=#CCCCCC;" parent="cFaB45KztUIKXS-_cTrr-14" vertex="1">
          <mxGeometry x="371" y="2517" width="220" height="41" as="geometry" />
        </mxCell>
        <mxCell id="DXEXjRhc03ldfBuddgmn-18" value="&lt;div style=&quot;&quot;&gt;&lt;font style=&quot;font-size: 30px;&quot;&gt;*発生年月日&lt;/font&gt;&lt;/div&gt;" style="rounded=0;whiteSpace=wrap;html=1;align=right;dashed=1;dashPattern=8 8;verticalAlign=bottom;" parent="cFaB45KztUIKXS-_cTrr-14" vertex="1">
          <mxGeometry x="68" y="2514" width="230" height="48" as="geometry" />
        </mxCell>
        <mxCell id="DXEXjRhc03ldfBuddgmn-19" value="&lt;div style=&quot;&quot;&gt;&lt;br&gt;&lt;/div&gt;" style="rounded=0;whiteSpace=wrap;html=1;align=left;verticalAlign=top;fillColor=#CCCCCC;" parent="cFaB45KztUIKXS-_cTrr-14" vertex="1">
          <mxGeometry x="370" y="2971" width="340" height="48" as="geometry" />
        </mxCell>
        <mxCell id="DXEXjRhc03ldfBuddgmn-20" value="&lt;font style=&quot;font-size: 30px;&quot;&gt;*備考&lt;/font&gt;" style="rounded=0;whiteSpace=wrap;html=1;align=right;dashed=1;dashPattern=8 8;verticalAlign=bottom;" parent="cFaB45KztUIKXS-_cTrr-14" vertex="1">
          <mxGeometry x="70" y="2968" width="230" height="48" as="geometry" />
        </mxCell>
        <mxCell id="DXEXjRhc03ldfBuddgmn-21" value="&lt;font style=&quot;font-size: 30px;&quot;&gt;☑遺贈&lt;/font&gt;" style="text;html=1;strokeColor=none;fillColor=#CCCCCC;align=left;verticalAlign=middle;whiteSpace=wrap;rounded=0;" parent="cFaB45KztUIKXS-_cTrr-14" vertex="1">
          <mxGeometry x="738" y="2985" width="180" height="30" as="geometry" />
        </mxCell>
        <mxCell id="DXEXjRhc03ldfBuddgmn-22" value="&lt;div style=&quot;&quot;&gt;&lt;span style=&quot;font-size: 30px;&quot;&gt;*集めた期間&lt;/span&gt;&lt;/div&gt;" style="rounded=0;whiteSpace=wrap;html=1;align=right;dashed=1;dashPattern=8 8;verticalAlign=bottom;" parent="cFaB45KztUIKXS-_cTrr-14" vertex="1">
          <mxGeometry x="64" y="2584" width="230" height="48" as="geometry" />
        </mxCell>
        <mxCell id="DXEXjRhc03ldfBuddgmn-23" value="&lt;div style=&quot;&quot;&gt;&lt;span style=&quot;background-color: initial;&quot;&gt;&lt;font style=&quot;font-size: 30px;&quot;&gt;2012-10-01&lt;/font&gt;&lt;/span&gt;&lt;/div&gt;" style="rounded=0;whiteSpace=wrap;html=1;align=left;fillColor=#CCCCCC;" parent="cFaB45KztUIKXS-_cTrr-14" vertex="1">
          <mxGeometry x="371" y="2587" width="220" height="48" as="geometry" />
        </mxCell>
        <mxCell id="DXEXjRhc03ldfBuddgmn-24" value="&lt;div style=&quot;&quot;&gt;&lt;span style=&quot;background-color: initial;&quot;&gt;&lt;font style=&quot;font-size: 30px;&quot;&gt;2012-11-15&lt;/font&gt;&lt;/span&gt;&lt;/div&gt;" style="rounded=0;whiteSpace=wrap;html=1;align=left;fillColor=#CCCCCC;" parent="cFaB45KztUIKXS-_cTrr-14" vertex="1">
          <mxGeometry x="761" y="2587" width="220" height="48" as="geometry" />
        </mxCell>
        <mxCell id="DXEXjRhc03ldfBuddgmn-25" value="&lt;span style=&quot;font-size: 24px;&quot;&gt;Calendar&lt;/span&gt;" style="rounded=1;whiteSpace=wrap;html=1;fillColor=#CCCCCC;" parent="cFaB45KztUIKXS-_cTrr-14" vertex="1">
          <mxGeometry x="604" y="2586" width="120" height="48" as="geometry" />
        </mxCell>
        <mxCell id="DXEXjRhc03ldfBuddgmn-26" value="&lt;span style=&quot;font-size: 24px;&quot;&gt;Calendar&lt;/span&gt;" style="rounded=1;whiteSpace=wrap;html=1;fillColor=#CCCCCC;" parent="cFaB45KztUIKXS-_cTrr-14" vertex="1">
          <mxGeometry x="1001" y="2590" width="120" height="48" as="geometry" />
        </mxCell>
        <mxCell id="DXEXjRhc03ldfBuddgmn-27" value="&lt;font style=&quot;font-size: 30px;&quot;&gt;*税額控除&lt;/font&gt;" style="rounded=0;whiteSpace=wrap;html=1;align=right;dashed=1;dashPattern=8 8;verticalAlign=bottom;" parent="cFaB45KztUIKXS-_cTrr-14" vertex="1">
          <mxGeometry x="71" y="3038" width="230" height="46" as="geometry" />
        </mxCell>
        <mxCell id="DXEXjRhc03ldfBuddgmn-28" value="&lt;font style=&quot;font-size: 30px;&quot;&gt;☑必要&lt;/font&gt;" style="text;html=1;strokeColor=none;fillColor=none;align=left;verticalAlign=middle;whiteSpace=wrap;rounded=0;" parent="cFaB45KztUIKXS-_cTrr-14" vertex="1">
          <mxGeometry x="368" y="3053" width="180" height="30" as="geometry" />
        </mxCell>
        <mxCell id="DXEXjRhc03ldfBuddgmn-29" value="&lt;span style=&quot;font-size: 30px;&quot;&gt;報告除外で処理されていますが、××という条文上の理由で報告するのが適当と思われます。&lt;/span&gt;" style="rounded=0;whiteSpace=wrap;html=1;align=left;verticalAlign=top;fillColor=#CCCCCC;" parent="cFaB45KztUIKXS-_cTrr-14" vertex="1">
          <mxGeometry x="352" y="3208" width="748" height="144" as="geometry" />
        </mxCell>
        <mxCell id="DXEXjRhc03ldfBuddgmn-30" value="&lt;font style=&quot;font-size: 84px;&quot;&gt;○&lt;/font&gt;" style="text;html=1;strokeColor=none;fillColor=none;align=center;verticalAlign=middle;whiteSpace=wrap;rounded=0;fontSize=60;" parent="cFaB45KztUIKXS-_cTrr-14" vertex="1">
          <mxGeometry x="873" y="2317" width="60" height="30" as="geometry" />
        </mxCell>
        <mxCell id="DXEXjRhc03ldfBuddgmn-31" value="&lt;font style=&quot;font-size: 30px;&quot;&gt;政治活動報告対象外(廃止予定)&lt;/font&gt;" style="text;html=1;strokeColor=none;fillColor=none;align=left;verticalAlign=middle;whiteSpace=wrap;rounded=0;" parent="cFaB45KztUIKXS-_cTrr-14" vertex="1">
          <mxGeometry x="929" y="2307" width="421" height="60" as="geometry" />
        </mxCell>
        <mxCell id="DXEXjRhc03ldfBuddgmn-32" value="&lt;font style=&quot;font-size: 30px;&quot;&gt;*意見付記&lt;/font&gt;" style="rounded=0;whiteSpace=wrap;html=1;align=right;dashed=1;dashPattern=8 8;verticalAlign=bottom;" parent="cFaB45KztUIKXS-_cTrr-14" vertex="1">
          <mxGeometry x="71" y="3208" width="230" height="46" as="geometry" />
        </mxCell>
        <mxCell id="DXEXjRhc03ldfBuddgmn-33" value="&lt;font style=&quot;font-size: 30px;&quot;&gt;*処理区分&lt;/font&gt;" style="rounded=0;whiteSpace=wrap;html=1;align=right;dashed=1;dashPattern=8 8;verticalAlign=bottom;" parent="cFaB45KztUIKXS-_cTrr-14" vertex="1">
          <mxGeometry x="65" y="3110" width="230" height="46" as="geometry" />
        </mxCell>
        <mxCell id="DXEXjRhc03ldfBuddgmn-34" value="&lt;font style=&quot;font-size: 30px;&quot;&gt;☑前例と異なる処理&lt;/font&gt;" style="text;html=1;strokeColor=none;fillColor=none;align=left;verticalAlign=middle;whiteSpace=wrap;rounded=0;" parent="cFaB45KztUIKXS-_cTrr-14" vertex="1">
          <mxGeometry x="362" y="3123" width="408" height="30" as="geometry" />
        </mxCell>
        <mxCell id="DXEXjRhc03ldfBuddgmn-35" value="&lt;span style=&quot;font-size: 30px;&quot;&gt;保全された書証&lt;/span&gt;" style="rounded=1;whiteSpace=wrap;html=1;" parent="cFaB45KztUIKXS-_cTrr-14" vertex="1">
          <mxGeometry x="706" y="3113" width="264" height="48" as="geometry" />
        </mxCell>
        <mxCell id="DXEXjRhc03ldfBuddgmn-36" value="&lt;font style=&quot;font-size: 30px;&quot;&gt;選択された内容&lt;/font&gt;" style="rounded=0;whiteSpace=wrap;html=1;align=left;dashed=1;dashPattern=8 8;verticalAlign=bottom;" parent="cFaB45KztUIKXS-_cTrr-14" vertex="1">
          <mxGeometry x="270" y="2240" width="333" height="46" as="geometry" />
        </mxCell>
        <mxCell id="DXEXjRhc03ldfBuddgmn-37" value="&lt;div style=&quot;&quot;&gt;&lt;span style=&quot;text-align: center;&quot;&gt;&lt;font style=&quot;font-size: 30px;&quot;&gt;2022-03-06 12:34:56&lt;/font&gt;&lt;/span&gt;&lt;br&gt;&lt;/div&gt;" style="rounded=0;whiteSpace=wrap;html=1;align=left;fillColor=#CCCCCC;" parent="cFaB45KztUIKXS-_cTrr-14" vertex="1">
          <mxGeometry x="627" y="2240" width="293" height="41" as="geometry" />
        </mxCell>
        <mxCell id="DXEXjRhc03ldfBuddgmn-38" value="&lt;div style=&quot;&quot;&gt;&lt;span style=&quot;background-color: initial;&quot;&gt;&lt;font style=&quot;font-size: 30px;&quot;&gt;▼会計責任者&lt;/font&gt;&lt;/span&gt;&lt;/div&gt;" style="rounded=0;whiteSpace=wrap;html=1;align=left;fillColor=#CCCCCC;" parent="cFaB45KztUIKXS-_cTrr-14" vertex="1">
          <mxGeometry x="957" y="2242" width="220" height="41" as="geometry" />
        </mxCell>
        <mxCell id="DXEXjRhc03ldfBuddgmn-39" value="&lt;font style=&quot;font-size: 84px;&quot;&gt;○&lt;/font&gt;" style="text;html=1;strokeColor=none;fillColor=none;align=center;verticalAlign=middle;whiteSpace=wrap;rounded=0;fontSize=60;" parent="cFaB45KztUIKXS-_cTrr-14" vertex="1">
          <mxGeometry x="820" y="367" width="60" height="30" as="geometry" />
        </mxCell>
        <mxCell id="DXEXjRhc03ldfBuddgmn-40" value="&lt;font style=&quot;font-size: 48px;&quot;&gt;●&lt;/font&gt;" style="text;html=1;strokeColor=none;fillColor=none;align=center;verticalAlign=middle;whiteSpace=wrap;rounded=0;fontSize=48;" parent="cFaB45KztUIKXS-_cTrr-14" vertex="1">
          <mxGeometry x="820" y="369" width="60" height="30" as="geometry" />
        </mxCell>
        <mxCell id="DXEXjRhc03ldfBuddgmn-41" value="&lt;font style=&quot;font-size: 30px;&quot;&gt;データ表示&lt;/font&gt;" style="text;html=1;strokeColor=none;fillColor=none;align=left;verticalAlign=middle;whiteSpace=wrap;rounded=0;" parent="cFaB45KztUIKXS-_cTrr-14" vertex="1">
          <mxGeometry x="875" y="356" width="165" height="60" as="geometry" />
        </mxCell>
        <mxCell id="DXEXjRhc03ldfBuddgmn-42" value="&lt;font style=&quot;font-size: 84px;&quot;&gt;○&lt;/font&gt;" style="text;html=1;strokeColor=none;fillColor=none;align=center;verticalAlign=middle;whiteSpace=wrap;rounded=0;fontSize=60;" parent="cFaB45KztUIKXS-_cTrr-14" vertex="1">
          <mxGeometry x="1260" y="807" width="60" height="30" as="geometry" />
        </mxCell>
        <mxCell id="DXEXjRhc03ldfBuddgmn-43" value="&lt;font style=&quot;font-size: 48px;&quot;&gt;●&lt;/font&gt;" style="text;html=1;strokeColor=none;fillColor=none;align=center;verticalAlign=middle;whiteSpace=wrap;rounded=0;fontSize=48;" parent="cFaB45KztUIKXS-_cTrr-14" vertex="1">
          <mxGeometry x="1260" y="809" width="60" height="30" as="geometry" />
        </mxCell>
        <mxCell id="DXEXjRhc03ldfBuddgmn-44" value="&lt;font style=&quot;font-size: 30px;&quot;&gt;データ表示&lt;/font&gt;" style="text;html=1;strokeColor=none;fillColor=none;align=left;verticalAlign=middle;whiteSpace=wrap;rounded=0;" parent="cFaB45KztUIKXS-_cTrr-14" vertex="1">
          <mxGeometry x="1315" y="796" width="165" height="60" as="geometry" />
        </mxCell>
        <mxCell id="DXEXjRhc03ldfBuddgmn-45" value="&lt;font style=&quot;font-size: 84px;&quot;&gt;○&lt;/font&gt;" style="text;html=1;strokeColor=none;fillColor=none;align=center;verticalAlign=middle;whiteSpace=wrap;rounded=0;fontSize=60;" parent="cFaB45KztUIKXS-_cTrr-14" vertex="1">
          <mxGeometry x="1260" y="1307" width="60" height="30" as="geometry" />
        </mxCell>
        <mxCell id="DXEXjRhc03ldfBuddgmn-46" value="&lt;font style=&quot;font-size: 48px;&quot;&gt;●&lt;/font&gt;" style="text;html=1;strokeColor=none;fillColor=none;align=center;verticalAlign=middle;whiteSpace=wrap;rounded=0;fontSize=48;" parent="cFaB45KztUIKXS-_cTrr-14" vertex="1">
          <mxGeometry x="1260" y="1309" width="60" height="30" as="geometry" />
        </mxCell>
        <mxCell id="DXEXjRhc03ldfBuddgmn-47" value="&lt;font style=&quot;font-size: 30px;&quot;&gt;データ表示&lt;/font&gt;" style="text;html=1;strokeColor=none;fillColor=none;align=left;verticalAlign=middle;whiteSpace=wrap;rounded=0;" parent="cFaB45KztUIKXS-_cTrr-14" vertex="1">
          <mxGeometry x="1315" y="1296" width="165" height="60" as="geometry" />
        </mxCell>
        <mxCell id="DXEXjRhc03ldfBuddgmn-48" value="&lt;font style=&quot;font-size: 84px;&quot;&gt;○&lt;/font&gt;" style="text;html=1;strokeColor=none;fillColor=none;align=center;verticalAlign=middle;whiteSpace=wrap;rounded=0;fontSize=60;" parent="cFaB45KztUIKXS-_cTrr-14" vertex="1">
          <mxGeometry x="810" y="1817" width="60" height="30" as="geometry" />
        </mxCell>
        <mxCell id="DXEXjRhc03ldfBuddgmn-49" value="&lt;font style=&quot;font-size: 48px;&quot;&gt;●&lt;/font&gt;" style="text;html=1;strokeColor=none;fillColor=none;align=center;verticalAlign=middle;whiteSpace=wrap;rounded=0;fontSize=48;" parent="cFaB45KztUIKXS-_cTrr-14" vertex="1">
          <mxGeometry x="810" y="1819" width="60" height="30" as="geometry" />
        </mxCell>
        <mxCell id="DXEXjRhc03ldfBuddgmn-50" value="&lt;font style=&quot;font-size: 30px;&quot;&gt;データ表示&lt;/font&gt;" style="text;html=1;strokeColor=none;fillColor=none;align=left;verticalAlign=middle;whiteSpace=wrap;rounded=0;" parent="cFaB45KztUIKXS-_cTrr-14" vertex="1">
          <mxGeometry x="865" y="1806" width="165" height="60" as="geometry" />
        </mxCell>
        <mxCell id="X5H4YOKAZhuegVsZEM3o-0" value="&lt;div style=&quot;&quot;&gt;&lt;span style=&quot;background-color: initial;&quot;&gt;&lt;font style=&quot;font-size: 30px;&quot;&gt;357854&lt;/font&gt;&lt;/span&gt;&lt;/div&gt;" style="rounded=0;whiteSpace=wrap;html=1;align=left;fillColor=#CCCCCC;" vertex="1" parent="cFaB45KztUIKXS-_cTrr-14">
          <mxGeometry x="429" y="116" width="220" height="48" as="geometry" />
        </mxCell>
        <mxCell id="X5H4YOKAZhuegVsZEM3o-1" value="&lt;div style=&quot;&quot;&gt;&lt;span style=&quot;background-color: initial;&quot;&gt;&lt;font style=&quot;font-size: 30px;&quot;&gt;収入項目&lt;/font&gt;&lt;/span&gt;&lt;/div&gt;" style="rounded=0;whiteSpace=wrap;html=1;align=right;dashed=1;dashPattern=8 8;verticalAlign=bottom;" vertex="1" parent="cFaB45KztUIKXS-_cTrr-14">
          <mxGeometry x="130" y="113" width="230" height="48" as="geometry" />
        </mxCell>
        <mxCell id="X5H4YOKAZhuegVsZEM3o-2" value="&lt;span style=&quot;font-size: 30px;&quot;&gt;寄付　政治団体　三郎&lt;/span&gt;" style="rounded=0;whiteSpace=wrap;html=1;align=left;fillColor=#CCCCCC;" vertex="1" parent="cFaB45KztUIKXS-_cTrr-14">
          <mxGeometry x="699" y="116" width="521" height="48" as="geometry" />
        </mxCell>
        <mxCell id="X5H4YOKAZhuegVsZEM3o-3" value="&lt;span style=&quot;font-size: 30px; text-align: right;&quot;&gt;検索して指定&lt;/span&gt;" style="rounded=1;whiteSpace=wrap;html=1;" vertex="1" parent="cFaB45KztUIKXS-_cTrr-14">
          <mxGeometry x="1280" y="110" width="220" height="60" as="geometry" />
        </mxCell>
      </root>
    </mxGraphModel>
  </diagram>
</mxfile>
